:SAMPLES-PER-SECOND 30
:FULLY-SPECIFIED
:DEGREES
115
root  -64.4723 39.9427 -5.84447 49.4958 -85.2911 -55.6111
RightUpLeg  5.38798 -12.4528 -0.215368
RightLeg  22.2337 0.0314404 -0.318834
RightFoot  -16.3507 -0.0927028 0.168609
RightToes  0.00048216 0.542163 -0.142577
Spine  6.98243 3.00695 14.8943
Spine1  14.2338 5.95418 -6.14482
HEad  14.6786 -6.18725 -9.19075
LeftShoulder1  6.60983 -9.03784 -45.9245
LeftArm  -20.0475 39.9877 -43.6034
LeftForeArm  26.5149 -11.4394 -3.09853
LeftHand  -0.25398 0.0180481 5.50724
RightShoulder  5.57319 8.42365 40.5517
RightArm  1.18235 -10.0889 32.5432
RightForeArm  6.70129 50.3005 13.062
RightHand  -0.714997 -0.811432 -18.0123
LeftUpLeg  -16.6567 6.81466 3.02226
LeftLeg  6.10298 4.89044 -3.18782
LeftFoot  10.7587 -0.613813 2.80555
LeftToes  1.06249e-005 4.65856e-005 -8.18498e-006
116
root  -65.5171 39.6267 -5.73203 69.647 -87.4252 -75.5637
RightUpLeg  2.65435 -7.59131 -1.13986
RightLeg  30.0011 -1.71216 -1.30495
RightFoot  -17.4078 0.111629 4.5791
RightToes  0.00048216 0.542163 -0.142577
Spine  7.32448 3.02837 10.6532
Spine1  13.6674 5.3852 -4.95044
HEad  13.4793 -3.02637 -7.96406
LeftShoulder1  6.95206 -9.39302 -47.0047
LeftArm  -18.6331 38.1224 -43.1038
LeftForeArm  29.0464 -10.8973 -3.4325
LeftHand  -0.25398 0.0180481 5.50724
RightShoulder  5.90745 8.76235 41.8964
RightArm  1.36167 -9.65924 32.8566
RightForeArm  5.23581 45.3771 11.0265
RightHand  -0.889308 0.166891 -18.491
LeftUpLeg  -18.7159 11.5963 -0.0701012
LeftLeg  12.1894 1.20155 -1.72722
LeftFoot  11.6645 -1.67974 7.9417
LeftToes  1.06249e-005 4.65856e-005 -8.18498e-006
117
root  -66.372 39.511 -5.6531 120.027 -88.8867 -126.083
RightUpLeg  -1.62311 -4.78172 -3.25048
RightLeg  39.8443 -1.17817 -1.29646
RightFoot  -13.2485 0.0471073 8.93115
RightToes  0.00048216 0.542163 -0.142577
Spine  8.65139 2.7106 6.51769
Spine1  12.799 4.64356 -4.22422
HEad  11.8591 -0.107912 -6.72014
LeftShoulder1  7.32011 -9.88749 -47.6885
LeftArm  -17.1909 34.8809 -41.2213
LeftForeArm  31.0451 -11.6006 -3.58633
LeftHand  -0.25398 0.0180481 5.50724
RightShoulder  6.29941 9.27382 42.9634
RightArm  0.471846 -8.68523 34.2824
RightForeArm  2.24882 37.3089 8.41772
RightHand  -1.40583 2.61826 -20.4099
LeftUpLeg  -19.7756 15.9468 -3.01025
LeftLeg  16.6886 -1.89472 -0.581751
LeftFoot  9.53954 -1.77309 9.25641
LeftToes  1.06249e-005 4.65856e-005 -8.18498e-006
118
root  -67.0567 39.6042 -5.55113 -170.531 -87.8837 164.332
RightUpLeg  -6.83046 -3.24791 -5.15948
RightLeg  48.7707 0.00855444 -0.341934
RightFoot  -5.86267 -0.569242 11.2387
RightToes  0.00048216 0.542163 -0.142577
Spine  10.313 2.23237 4.3466
Spine1  11.6621 4.18713 -4.90491
HEad  11.5193 2.60308 -5.69675
LeftShoulder1  7.47243 -10.1683 -47.6822
LeftArm  -15.4626 31.2379 -38.4324
LeftForeArm  32.0765 -14.3858 -3.51021
LeftHand  -0.25398 0.0180481 5.50724
RightShoulder  6.46971 9.57427 43.1186
RightArm  0.531006 -7.65828 36.5411
RightForeArm  -2.89495 27.4681 6.13944
RightHand  -1.93484 4.89377 -21.987
LeftUpLeg  -18.9205 17.3347 -3.7797
LeftLeg  17.8968 -1.34753 -0.318923
LeftFoot  6.95631 -1.41469 8.50756
LeftToes  1.06249e-005 4.65856e-005 -8.18498e-006
119
root  -67.6475 39.8478 -5.41934 -176.747 -86.0143 170.685
RightUpLeg  -11.6754 -2.19278 -5.81135
RightLeg  54.2879 0.239577 -0.0744323
RightFoot  -1.38749 -1.0038 11.4229
RightToes  0.00048216 0.542163 -0.142577
Spine  11.5748 1.88909 4.21463
Spine1  10.4683 4.09284 -6.1188
HEad  11.1744 4.70121 -5.20204
LeftShoulder1  7.46525 -10.2193 -47.4561
LeftArm  -14.2673 28.1214 -35.4459
LeftForeArm  31.9951 -19.6447 -3.26713
LeftHand  -0.25398 0.0180481 5.50724
RightShoulder  6.43508 9.61974 42.7147
RightArm  1.12996 -7.23445 37.8923
RightForeArm  -7.00299 18.8701 5.77068
RightHand  -1.95294 5.29295 -21.3351
LeftUpLeg  -16.9802 17.0334 -2.87017
LeftLeg  16.6173 0.92572 -0.516552
LeftFoot  6.20746 -1.31533 8.26138
LeftToes  1.06249e-005 4.65856e-005 -8.18498e-006
120
root  -68.2162 40.2463 -5.28174 172.181 -84.2042 -177.789
RightUpLeg  -15.2158 -1.31254 -5.16548
RightLeg  55.3792 -0.808225 -1.66576
RightFoot  -1.75235 -0.879961 10.2877
RightToes  0.00048216 0.542163 -0.142577
Spine  12.3094 1.78715 5.30707
Spine1  9.35762 4.19854 -6.6227
HEad  8.89118 5.40829 -5.39032
LeftShoulder1  7.38791 -10.1721 -47.1203
LeftArm  -16.0741 25.6268 -32.9176
LeftForeArm  32.6548 -26.0934 -3.80189
LeftHand  -0.25398 0.0180481 5.50724
RightShoulder  6.41878 9.67001 42.4267
RightArm  -1.20547 -8.07401 37.2852
RightForeArm  -4.64481 13.8744 7.57984
RightHand  -1.66741 4.57646 -19.6036
LeftUpLeg  -14.4614 14.2304 -0.483281
LeftLeg  13.7234 5.30673 -1.16243
LeftFoot  6.73284 -1.38796 8.45335
LeftToes  1.06249e-005 4.65856e-005 -8.18498e-006
121
root  -68.751 40.6583 -5.18052 165.504 -82.6041 -170.358
RightUpLeg  -17.6799 -0.560861 -4.15542
RightLeg  52.6997 -2.75497 -4.24094
RightFoot  -3.77825 -0.614619 8.89653
RightToes  0.00048216 0.542163 -0.142577
Spine  12.7668 1.83408 6.19505
Spine1  8.31353 4.21402 -6.2418
HEad  6.37754 5.74661 -5.56782
LeftShoulder1  7.24309 -10.0186 -46.7102
LeftArm  -19.3291 23.1592 -30.7617
LeftForeArm  32.9917 -31.9198 -5.15538
LeftHand  -0.25398 0.0180481 5.50724
RightShoulder  6.49509 9.87075 42.2776
RightArm  -0.332698 -10.2818 35.8438
RightForeArm  -3.23146 13.3955 7.78096
RightHand  -1.61703 4.47154 -19.2115
LeftUpLeg  -12.2988 11.1235 1.8299
LeftLeg  10.5301 9.58358 -2.05089
LeftFoot  6.87408 -1.32111 7.96237
LeftToes  1.06249e-005 4.65856e-005 -8.18498e-006
122
root  -69.2469 40.9226 -5.13129 161.516 -81.6866 -165.586
RightUpLeg  -19.1358 -0.39991 -3.33935
RightLeg  47.5281 -5.02267 -6.17336
RightFoot  -4.76545 -0.455358 7.35814
RightToes  0.00048216 0.542163 -0.142577
Spine  13.1381 1.69674 6.3749
Spine1  7.25248 3.85169 -5.54937
HEad  3.94745 6.31922 -5.73991
LeftShoulder1  7.01971 -9.71282 -46.3038
LeftArm  -21.9761 20.4391 -28.4758
LeftForeArm  31.3381 -36.0075 -6.27043
LeftHand  -0.25398 0.0180481 5.50724
RightShoulder  6.52719 10.0111 42.0288
RightArm  1.37426 -13.0759 34.4685
RightForeArm  -3.50183 15.2034 7.18584
RightHand  -1.79901 5.04316 -20.184
LeftUpLeg  -10.981 8.93144 3.43264
LeftLeg  8.43372 12.3874 -2.89164
LeftFoot  6.3993 -1.15367 7.13321
LeftToes  1.06249e-005 4.65856e-005 -8.18498e-006
123
root  -69.7325 41.0409 -5.13638 158.965 -81.5844 -162.356
RightUpLeg  -19.2445 -1.27939 -2.93674
RightLeg  40.3823 -6.92414 -6.55266
RightFoot  -5.51388 -0.35744 6.29754
RightToes  0.00048216 0.542163 -0.142577
Spine  13.2108 1.29014 5.76176
Spine1  6.36754 3.08753 -4.69084
HEad  0.927579 7.18249 -5.10668
LeftShoulder1  6.79911 -9.39271 -45.9479
LeftArm  -24.3699 17.7391 -26.0153
LeftForeArm  28.5614 -37.8385 -6.93613
LeftHand  -0.25398 0.0180481 5.50724
RightShoulder  6.41199 9.8684 41.7053
RightArm  2.44197 -15.4469 33.251
RightForeArm  -6.02937 17.1239 6.60094
RightHand  -1.93816 5.46092 -20.8962
LeftUpLeg  -10.4696 7.78588 4.17815
LeftLeg  7.73109 13.4467 -3.36599
LeftFoot  5.82932 -1.04756 6.69746
LeftToes  1.06249e-005 4.65856e-005 -8.18498e-006
124
root  -70.2334 41.0658 -5.20843 159.351 -82.2067 -162.295
RightUpLeg  -17.7029 -3.31536 -3.193
RightLeg  31.2385 -7.48287 -5.15072
RightFoot  -6.69458 -0.32735 6.92574
RightToes  0.00048216 0.542163 -0.142577
Spine  12.9965 0.872397 4.12054
Spine1  5.66138 2.16737 -3.53153
HEad  -3.62897 8.06086 -2.67244
LeftShoulder1  6.65614 -9.27644 -45.3733
LeftArm  -26.0515 15.4618 -23.7234
LeftForeArm  26.254 -37.2391 -6.91536
LeftHand  -0.25398 0.0180481 5.50724
RightShoulder  6.22766 9.56774 41.4187
RightArm  1.27769 -17.3035 32.0648
RightForeArm  -8.64797 18.2395 6.25028
RightHand  -1.97687 5.64247 -20.9616
LeftUpLeg  -10.4239 7.34562 4.02453
LeftLeg  8.27726 13.3293 -3.40475
LeftFoot  4.67835 -0.906663 6.22649
LeftToes  1.06249e-005 4.65856e-005 -8.18498e-006
125
root  -70.7527 41.0355 -5.3381 164.778 -83.3587 -167.572
RightUpLeg  -14.9275 -6.40426 -4.04079
RightLeg  21.1528 -5.81772 -2.70589
RightFoot  -5.98673 -0.407764 7.8068
RightToes  0.00048216 0.542163 -0.142577
Spine  12.7616 0.629419 1.62396
Spine1  4.79745 1.312 -2.06248
HEad  -4.77428 8.24103 -2.51986
LeftShoulder1  6.49039 -9.29163 -44.1373
LeftArm  -25.8577 13.734 -21.5681
LeftForeArm  25.8718 -34.5472 -6.21746
LeftHand  -0.25398 0.0180481 5.50724
RightShoulder  6.06811 9.35937 40.9789
RightArm  -3.481 -19.177 31.079
RightForeArm  -8.55225 18.3638 5.92874
RightHand  -2.0453 6.02996 -20.9607
LeftUpLeg  -10.3074 6.97014 3.06651
LeftLeg  9.3268 12.8868 -3.18628
LeftFoot  2.81441 -0.671424 5.26224
LeftToes  1.06249e-005 4.65856e-005 -8.18498e-006
